# ProBuilder 5.0.7
# https://unity3d.com/unity/features/worldbuilding/probuilder
# 6/1/2024 10:48:48 AM

mtllib ./Prism_(1).mtl
o Prism (1)

g Prism (1)
v 0 0 0
v -1 0 0
v -0.5 1 0
v -1 0 1
v -0.5 1 1
v 0 0 1

vt 0 0
vt 1 0
vt 0.5 1
vt 0 -0.4472136
vt 1 -0.4472136
vt 0 0.6708204
vt 1 0.6708204
vt -1 0
vt -0.5 1
vt -1 1.118034
vt 0 1.118034
vt 0 1
vt -1 1

vn 0 0 -1
vn -0.8944272 0.4472136 0
vn 0 0 1
vn 0.8944272 0.4472136 0
vn 0 -1 0

usemtl Glass
f 1/1/1 2/2/1 3/3/1
f 4/8/3 6/1/3 5/9/3
f 3/6/2 2/4/2 4/5/2
f 4/5/2 5/7/2 3/6/2
f 5/10/4 6/8/4 1/1/4
f 1/1/4 3/11/4 5/10/4
f 4/13/5 2/8/5 1/1/5
f 1/1/5 6/12/5 4/13/5

